<svg width="148" height="34" viewBox="0 0 148 34" fill="none" xmlns="http://www.w3.org/2000/svg">
<rect width="111" height="34" fill="url(#paint0_linear)"/>
<rect x="114" width="34" height="34" fill="#C40000"/>
<path fill-rule="evenodd" clip-rule="evenodd" d="M16.6248 7.89233H10.2803V25.6936H14.1513V19.184H16.6248C20.2334 19.184 22.4711 16.5866 22.4711 13.5824C22.4711 10.5782 20.2334 7.89233 16.6248 7.89233ZM18.5559 13.5824C18.5559 15.027 17.7333 15.9763 16.4921 15.9763H14.1513V11.1825H16.4921C17.7422 11.1825 18.5559 12.1378 18.5559 13.5824Z" fill="white"/>
<path fill-rule="evenodd" clip-rule="evenodd" d="M31.552 7.55334C27.6839 7.55334 24.5234 10.0269 24.5234 14.9239V18.6887C24.5234 23.6122 27.6662 26.0357 31.5638 26.0357C35.4613 26.0357 38.6218 23.6122 38.6218 18.6887V14.9239C38.6218 10.0239 35.42 7.55334 31.552 7.55334ZM34.739 15.1892V18.3969C34.739 21.69 33.4211 22.7425 31.552 22.7425C29.6828 22.7425 28.3944 21.69 28.3944 18.3969V15.1892C28.3944 11.9757 29.7093 10.8435 31.552 10.8435C33.3946 10.8435 34.739 11.9757 34.739 15.1892Z" fill="white"/>
<path d="M53.7957 25.2189C52.1387 25.7608 50.4062 26.0365 48.6628 26.0356C44.5029 26.0356 41.3955 23.6358 41.3955 18.7152V14.8825C41.3955 9.95903 44.5029 7.56214 48.6628 7.56214C50.4062 7.56125 52.1387 7.8369 53.7957 8.37879L53.0675 11.5275C51.653 11.0798 50.1789 10.8492 48.6953 10.8435C46.5902 10.8435 45.2724 11.9756 45.2724 15.1891V18.3703C45.2724 21.6133 46.5902 22.7425 48.6953 22.7425C50.1822 22.7523 51.6602 22.5121 53.0675 22.0319L53.7957 25.2189Z" fill="white"/>
<path d="M68.7791 25.2189C67.1209 25.7602 65.3876 26.0358 63.6433 26.0356C59.4834 26.0356 56.3789 23.6358 56.3789 18.7152V14.8825C56.3789 9.95903 59.4834 7.56213 63.6433 7.56213C65.3876 7.56193 67.1209 7.83756 68.7791 8.37879L68.0391 11.5275C66.6294 11.081 65.1603 10.8504 63.6816 10.8435C61.5766 10.8435 60.2587 11.9756 60.2587 15.1891V18.3703C60.2587 21.6133 61.5766 22.7425 63.6816 22.7425C65.1676 22.7524 66.6446 22.5122 68.0509 22.0319L68.7791 25.2189Z" fill="white"/>
<path d="M85.2859 25.6936H81.4149V18.1079C81.4149 17.3178 81.4385 16.3389 81.521 15.3159L74.9612 25.6936H71.8037V7.89233H75.6718V15.6078C75.6718 16.3714 75.6452 17.3178 75.5951 18.3201L82.1519 7.89233H85.2859V25.6936Z" fill="white"/>
<path fill-rule="evenodd" clip-rule="evenodd" d="M96.5513 25.6936H100.422V7.89233H93.9716C90.363 7.89233 88.1253 10.5782 88.1253 13.5824C88.1253 15.7405 89.2339 17.7511 91.2327 18.6356L87.916 25.6936H92.2322L95.0772 19.1899H96.5513V25.6936ZM96.5513 11.1825V15.9645L94.1544 15.9763C92.9073 15.9763 92.0229 15.0064 92.0229 13.5824C92.0229 12.1584 92.9162 11.1825 94.1544 11.1825H96.5513Z" fill="white"/>
<path fill-rule="evenodd" clip-rule="evenodd" d="M130.962 16.1945L138.194 7.86292H143.804L136.564 16.1945H130.962ZM143.796 25.6848V9.46969L139.574 14.3254V25.6848H143.796ZM138.512 17.2471H130.962V21.4689H138.521L138.512 17.2471ZM129.907 25.6907V21.4689H126.375L122.707 25.6907H129.907ZM122.595 13.6385C122.589 13.2659 122.718 12.9037 122.958 12.6184C123.133 12.4255 123.356 12.2813 123.603 12.1997V7.89829C120.629 8.14975 118.351 10.6532 118.382 13.6385V14.1662H122.595V13.6385ZM124.659 7.90124C125.864 8.00648 127.005 8.48933 127.919 9.281C130.326 11.3767 130.578 15.0261 128.483 17.4328L121.304 25.6878H118.355V22.657L125.298 14.6585C125.639 14.2752 125.766 13.7476 125.638 13.2513C125.509 12.755 125.142 12.3552 124.659 12.185V7.90124Z" fill="white"/>
<defs>
<linearGradient id="paint0_linear" x1="-61.0055" y1="-18.3154" x2="-61.0055" y2="53.3644" gradientUnits="userSpaceOnUse">
<stop stop-color="#0085FF"/>
<stop offset="0.18" stop-color="#0073ED"/>
<stop offset="0.55" stop-color="#0043BF"/>
<stop offset="1" stop-color="#00007E"/>
</linearGradient>
</defs>
</svg>
