<?xml version="1.0" standalone="no"?>
<!DOCTYPE svg PUBLIC "-//W3C//DTD SVG 20010904//EN"
 "http://www.w3.org/TR/2001/REC-SVG-20010904/DTD/svg10.dtd">
<svg version="1.0" xmlns="http://www.w3.org/2000/svg"
 width="150" height="150" viewBox="0 0 512 512"
 preserveAspectRatio="xMidYMid meet">
 <rect width="500" height="500" fill="#000" x="6" y="6"/>
<g transform="translate(0,512) scale(0.1,-0.1)"
fill="#fff" stroke="none">
<path d="M0 2560 l0 -2560 2560 0 2560 0 0 2560 0 2560 -2560 0 -2560 0 0
-2560z m2607 1507 c67 -37 90 -125 53 -198 -26 -49 -40 -181 -22 -193 6 -3 36
1 68 9 82 21 205 19 300 -5 46 -12 136 -49 214 -89 172 -87 226 -105 298 -99
52 5 59 9 99 53 36 39 47 46 68 41 14 -4 31 -18 37 -32 17 -37 -11 -86 -72
-126 -27 -18 -50 -38 -50 -44 0 -6 27 -74 59 -150 33 -76 105 -249 161 -384
56 -135 121 -290 145 -345 23 -55 44 -107 47 -116 4 -9 20 -19 37 -22 17 -4
31 -12 31 -18 0 -29 -69 -135 -114 -175 -85 -77 -188 -119 -328 -134 -160 -16
-330 14 -428 75 -54 34 -119 111 -146 171 -30 69 -30 84 0 84 25 0 52 52 164
325 77 188 262 627 277 657 l13 26 -62 7 c-94 10 -196 40 -300 89 -192 91
-325 109 -451 63 l-60 -22 -3 -820 c-2 -727 0 -826 14 -875 16 -56 39 -95 82
-142 19 -20 25 -41 29 -92 l6 -66 -202 0 -201 0 0 61 c0 55 3 65 35 102 19 22
45 61 57 86 l23 46 0 850 0 850 -65 22 c-79 27 -193 30 -270 7 -30 -9 -97 -36
-148 -60 -128 -60 -193 -81 -292 -93 -46 -6 -85 -12 -87 -14 -2 -2 13 -42 33
-88 72 -167 334 -791 334 -795 0 -3 11 -29 25 -58 21 -44 31 -55 56 -60 28 -5
31 -9 25 -33 -24 -101 -112 -206 -212 -253 -91 -44 -173 -60 -309 -60 -185 0
-295 36 -399 131 -84 76 -152 231 -96 216 12 -3 24 2 33 17 16 25 248 565 342
796 37 91 71 169 76 174 15 16 11 21 -42 56 -79 51 -108 112 -72 152 25 28 47
22 89 -24 45 -50 103 -69 173 -56 25 4 125 46 221 92 191 92 271 116 392 116
40 0 100 -7 133 -15 33 -8 64 -14 69 -15 17 0 -1 155 -23 198 -37 73 -20 150
44 192 34 23 60 25 92 7z m553 -2659 c54 -28 90 -90 90 -155 l0 -43 -680 0
-680 0 0 50 c0 80 45 144 112 160 18 4 276 8 573 9 l541 1 44 -22z" />
<path d="M1523 3147 c-29 -67 -113 -265 -188 -441 -74 -175 -134 -320 -132
-322 2 -3 173 -3 379 -2 l376 3 -45 100 c-40 91 -153 361 -279 668 -26 64 -50
117 -53 117 -4 0 -29 -55 -58 -123z"/>
<path d="M3513 3174 c-23 -54 -71 -169 -107 -254 -35 -85 -101 -241 -145 -347
-45 -105 -81 -194 -81 -197 0 -7 306 -6 562 3 l187 6 -19 45 c-11 25 -82 196
-158 380 -77 184 -153 364 -168 399 l-29 64 -42 -99z" />
</g>
</svg>
